name rise44.8762peak52.3436fall86.788.mot
datacolumns 19
datarows 33
range 5.93664000000000 5.98997200000000
endheader
time	ground_force1_vx	ground_force1_vy	ground_force1_vz	ground_force1_px	ground_force1_py	ground_force1_pz	ground_force2_vx	ground_force2_vy	ground_force2_vz	ground_force2_px	ground_force2_py	ground_force2_pz	ground_torque1_x	ground_torque1_y	ground_torque1_z	ground_torque2_x	ground_torque2_y	ground_torque2_z	
5.93664000000000	2.79199200000000	701.29367100000002	49.03695100000000	0.14404200000000	0.00000000000000	0.15146500000000	0.00000000000000	0.00000000000000	0.00000000000000	0.00000000000000	0.00000000000000	0.00000000000000	0.00000000000000	13.04728700000000	0.00000000000000	0.00000000000000	0.00000000000000	0.00000000000000	
5.93831200000000	2.22870400000000	702.76369299999999	49.17558800000000	0.14294500000000	0.00000000000000	0.15152100000000	0.00000000000000	0.00000000000000	0.00000000000000	0.00000000000000	0.00000000000000	0.00000000000000	0.00000000000000	13.18163000000000	0.00000000000000	0.00000000000000	0.00000000000000	0.00000000000000	
5.93997900000000	1.65221700000000	704.25296800000001	49.31662800000000	0.14183000000000	0.00000000000000	0.15157600000000	0.00000000000000	0.00000000000000	0.00000000000000	0.00000000000000	0.00000000000000	0.00000000000000	0.00000000000000	13.31965500000000	0.00000000000000	0.00000000000000	0.00000000000000	0.00000000000000	
5.94164600000000	1.06290100000000	705.76081899999997	49.45999100000000	0.14069800000000	0.00000000000000	0.15163000000000	0.00000000000000	0.00000000000000	0.00000000000000	0.00000000000000	0.00000000000000	0.00000000000000	0.00000000000000	13.46124500000000	0.00000000000000	0.00000000000000	0.00000000000000	0.00000000000000	
5.94331000000000	0.46117100000000	707.28664000000003	49.60561000000000	0.13955100000000	0.00000000000000	0.15168400000000	0.00000000000000	0.00000000000000	0.00000000000000	0.00000000000000	0.00000000000000	0.00000000000000	0.00000000000000	13.60627500000000	0.00000000000000	0.00000000000000	0.00000000000000	0.00000000000000	
5.94497900000000	-0.15251900000000	708.82989399999997	49.75343100000000	0.13838900000000	0.00000000000000	0.15173800000000	0.00000000000000	0.00000000000000	0.00000000000000	0.00000000000000	0.00000000000000	0.00000000000000	0.00000000000000	13.75461800000000	0.00000000000000	0.00000000000000	0.00000000000000	0.00000000000000	
5.94664600000000	-0.77767500000000	710.39010900000005	49.90341200000000	0.13721500000000	0.00000000000000	0.15179100000000	0.00000000000000	0.00000000000000	0.00000000000000	0.00000000000000	0.00000000000000	0.00000000000000	0.00000000000000	13.90613900000000	0.00000000000000	0.00000000000000	0.00000000000000	0.00000000000000	
5.94830900000000	-1.41376700000000	711.96686799999998	50.05552000000000	0.13603000000000	0.00000000000000	0.15184200000000	0.00000000000000	0.00000000000000	0.00000000000000	0.00000000000000	0.00000000000000	0.00000000000000	0.00000000000000	14.06070100000000	0.00000000000000	0.00000000000000	0.00000000000000	0.00000000000000	
5.94997600000000	-2.06023400000000	713.55980699999998	50.20973700000000	0.13483500000000	0.00000000000000	0.15189400000000	0.00000000000000	0.00000000000000	0.00000000000000	0.00000000000000	0.00000000000000	0.00000000000000	0.00000000000000	14.21816000000000	0.00000000000000	0.00000000000000	0.00000000000000	0.00000000000000	
5.95165100000000	-2.71648100000000	715.16861200000005	50.36605100000000	0.13363300000000	0.00000000000000	0.15194400000000	0.00000000000000	0.00000000000000	0.00000000000000	0.00000000000000	0.00000000000000	0.00000000000000	0.00000000000000	14.37836900000000	0.00000000000000	0.00000000000000	0.00000000000000	0.00000000000000	
5.95331400000000	-3.38188800000000	716.79300799999999	50.52446300000000	0.13242500000000	0.00000000000000	0.15199200000000	0.00000000000000	0.00000000000000	0.00000000000000	0.00000000000000	0.00000000000000	0.00000000000000	0.00000000000000	14.54117500000000	0.00000000000000	0.00000000000000	0.00000000000000	0.00000000000000	
5.95497200000000	-4.05580800000000	718.43275600000004	50.68498100000000	0.13121200000000	0.00000000000000	0.15204000000000	0.00000000000000	0.00000000000000	0.00000000000000	0.00000000000000	0.00000000000000	0.00000000000000	0.00000000000000	14.70642300000000	0.00000000000000	0.00000000000000	0.00000000000000	0.00000000000000	
5.95664000000000	-4.73757500000000	720.08764699999995	50.84762200000000	0.12999600000000	0.00000000000000	0.15208700000000	0.00000000000000	0.00000000000000	0.00000000000000	0.00000000000000	0.00000000000000	0.00000000000000	0.00000000000000	14.87395200000000	0.00000000000000	0.00000000000000	0.00000000000000	0.00000000000000	
5.95830600000000	-5.42650100000000	721.75749399999995	51.01241000000000	0.12878000000000	0.00000000000000	0.15213200000000	0.00000000000000	0.00000000000000	0.00000000000000	0.00000000000000	0.00000000000000	0.00000000000000	0.00000000000000	15.04359900000000	0.00000000000000	0.00000000000000	0.00000000000000	0.00000000000000	
5.95998000000000	-6.12188500000000	723.44213000000002	51.17937800000000	0.12756400000000	0.00000000000000	0.15217600000000	0.00000000000000	0.00000000000000	0.00000000000000	0.00000000000000	0.00000000000000	0.00000000000000	0.00000000000000	15.21519600000000	0.00000000000000	0.00000000000000	0.00000000000000	0.00000000000000	
5.96164100000000	-6.82301200000000	725.14139599999999	51.34856400000000	0.12635100000000	0.00000000000000	0.15221800000000	0.00000000000000	0.00000000000000	0.00000000000000	0.00000000000000	0.00000000000000	0.00000000000000	0.00000000000000	15.38857100000000	0.00000000000000	0.00000000000000	0.00000000000000	0.00000000000000	
5.96331300000000	-7.52915700000000	726.85513900000001	51.52001100000000	0.12514200000000	0.00000000000000	0.15225800000000	0.00000000000000	0.00000000000000	0.00000000000000	0.00000000000000	0.00000000000000	0.00000000000000	0.00000000000000	15.56355200000000	0.00000000000000	0.00000000000000	0.00000000000000	0.00000000000000	
5.96498000000000	-8.23959000000000	728.58320600000002	51.69377100000000	0.12393900000000	0.00000000000000	0.15229700000000	0.00000000000000	0.00000000000000	0.00000000000000	0.00000000000000	0.00000000000000	0.00000000000000	0.00000000000000	15.73996100000000	0.00000000000000	0.00000000000000	0.00000000000000	0.00000000000000	
5.96664300000000	-8.95357700000000	730.32543499999997	51.86989500000000	0.12274300000000	0.00000000000000	0.15233400000000	0.00000000000000	0.00000000000000	0.00000000000000	0.00000000000000	0.00000000000000	0.00000000000000	0.00000000000000	15.91761900000000	0.00000000000000	0.00000000000000	0.00000000000000	0.00000000000000	
5.96830600000000	-9.67038300000000	732.08165199999996	52.04844200000000	0.12155600000000	0.00000000000000	0.15237000000000	0.00000000000000	0.00000000000000	0.00000000000000	0.00000000000000	0.00000000000000	0.00000000000000	0.00000000000000	16.09634500000000	0.00000000000000	0.00000000000000	0.00000000000000	0.00000000000000	
5.96997400000000	-10.38927600000000	733.85166400000003	52.22947300000000	0.12037900000000	0.00000000000000	0.15240300000000	0.00000000000000	0.00000000000000	0.00000000000000	0.00000000000000	0.00000000000000	0.00000000000000	0.00000000000000	16.27595400000000	0.00000000000000	0.00000000000000	0.00000000000000	0.00000000000000	
5.97163900000000	-11.10952900000000	735.63525300000003	52.41305200000000	0.11921400000000	0.00000000000000	0.15243500000000	0.00000000000000	0.00000000000000	0.00000000000000	0.00000000000000	0.00000000000000	0.00000000000000	0.00000000000000	16.45626000000000	0.00000000000000	0.00000000000000	0.00000000000000	0.00000000000000	
5.97331400000000	-11.83042400000000	737.43217000000004	52.59924300000000	0.11806100000000	0.00000000000000	0.15246400000000	0.00000000000000	0.00000000000000	0.00000000000000	0.00000000000000	0.00000000000000	0.00000000000000	0.00000000000000	16.63707700000000	0.00000000000000	0.00000000000000	0.00000000000000	0.00000000000000	
5.97497200000000	-12.55125000000000	739.24213299999997	52.78811300000000	0.11692200000000	0.00000000000000	0.15249200000000	0.00000000000000	0.00000000000000	0.00000000000000	0.00000000000000	0.00000000000000	0.00000000000000	0.00000000000000	16.81821500000000	0.00000000000000	0.00000000000000	0.00000000000000	0.00000000000000	
5.97664600000000	-13.27131400000000	741.06481799999995	52.97973000000000	0.11579900000000	0.00000000000000	0.15251700000000	0.00000000000000	0.00000000000000	0.00000000000000	0.00000000000000	0.00000000000000	0.00000000000000	0.00000000000000	16.99948600000000	0.00000000000000	0.00000000000000	0.00000000000000	0.00000000000000	
5.97830500000000	-13.98993600000000	742.89985700000000	53.17416100000000	0.11469100000000	0.00000000000000	0.15254000000000	0.00000000000000	0.00000000000000	0.00000000000000	0.00000000000000	0.00000000000000	0.00000000000000	0.00000000000000	17.18069800000000	0.00000000000000	0.00000000000000	0.00000000000000	0.00000000000000	
5.97997600000000	-14.70645200000000	744.74683200000004	53.37147300000000	0.11360000000000	0.00000000000000	0.15256100000000	0.00000000000000	0.00000000000000	0.00000000000000	0.00000000000000	0.00000000000000	0.00000000000000	0.00000000000000	17.36166100000000	0.00000000000000	0.00000000000000	0.00000000000000	0.00000000000000	
5.98164500000000	-15.42022200000000	746.60527200000001	53.57172900000000	0.11252700000000	0.00000000000000	0.15258000000000	0.00000000000000	0.00000000000000	0.00000000000000	0.00000000000000	0.00000000000000	0.00000000000000	0.00000000000000	17.54218400000000	0.00000000000000	0.00000000000000	0.00000000000000	0.00000000000000	
5.98330700000000	-16.13062400000000	748.47464900000000	53.77499500000000	0.11147200000000	0.00000000000000	0.15259700000000	0.00000000000000	0.00000000000000	0.00000000000000	0.00000000000000	0.00000000000000	0.00000000000000	0.00000000000000	17.72207700000000	0.00000000000000	0.00000000000000	0.00000000000000	0.00000000000000	
5.98498000000000	-16.83706300000000	750.35437400000001	53.98133000000000	0.11043600000000	0.00000000000000	0.15261200000000	0.00000000000000	0.00000000000000	0.00000000000000	0.00000000000000	0.00000000000000	0.00000000000000	0.00000000000000	17.90115000000000	0.00000000000000	0.00000000000000	0.00000000000000	0.00000000000000	
5.98664000000000	-17.53896600000000	752.24379299999998	54.19079100000000	0.10941900000000	0.00000000000000	0.15262500000000	0.00000000000000	0.00000000000000	0.00000000000000	0.00000000000000	0.00000000000000	0.00000000000000	0.00000000000000	18.07921500000000	0.00000000000000	0.00000000000000	0.00000000000000	0.00000000000000	
5.98831100000000	-18.23579100000000	754.14218700000004	54.40343200000000	0.10842100000000	0.00000000000000	0.15263500000000	0.00000000000000	0.00000000000000	0.00000000000000	0.00000000000000	0.00000000000000	0.00000000000000	0.00000000000000	18.25608400000000	0.00000000000000	0.00000000000000	0.00000000000000	0.00000000000000	
5.98997200000000	-18.92702000000000	756.04876700000000	54.61930200000000	0.10744300000000	0.00000000000000	0.15264300000000	0.00000000000000	0.00000000000000	0.00000000000000	0.00000000000000	0.00000000000000	0.00000000000000	0.00000000000000	18.43157400000000	0.00000000000000	0.00000000000000	0.00000000000000	0.00000000000000	
